0
SECTION
2
HEADER
9
$ACADVER
1
AC1015
9
$INSUNITS
70
4
9
$EXTMIN
10
-2900
20
-2900
30
0
9
$EXTMAX
10
15400
20
10400
30
0
0
ENDSEC
0
SECTION
2
TABLES
0
TABLE
2
LAYER
70
8
0
LAYER
100
AcDbSymbolTableRecord
100
AcDbLayerTableRecord
2
MURI
70
0
62
7
6
CONTINUOUS
0
LAYER
100
AcDbSymbolTableRecord
100
AcDbLayerTableRecord
2
TRAMEZZE
70
0
62
8
6
CONTINUOUS
0
LAYER
100
AcDbSymbolTableRecord
100
AcDbLayerTableRecord
2
INFISSI
70
0
62
4
6
CONTINUOUS
0
LAYER
100
AcDbSymbolTableRecord
100
AcDbLayerTableRecord
2
ARREDO
70
0
62
9
6
CONTINUOUS
0
LAYER
100
AcDbSymbolTableRecord
100
AcDbLayerTableRecord
2
SANITARI
70
0
62
4
6
CONTINUOUS
0
LAYER
100
AcDbSymbolTableRecord
100
AcDbLayerTableRecord
2
QUOTE
70
0
62
2
6
CONTINUOUS
0
LAYER
100
AcDbSymbolTableRecord
100
AcDbLayerTableRecord
2
TESTI
70
0
62
3
6
CONTINUOUS
0
LAYER
100
AcDbSymbolTableRecord
100
AcDbLayerTableRecord
2
CORNICE
70
0
62
7
6
CONTINUOUS
0
ENDTAB
0
ENDSEC
0
SECTION
2
ENTITIES
0
LWPOLYLINE
8
MURI
100
AcDbEntity
100
AcDbPolyline
90
4
70
1
10
0
20
0
10
1200
20
0
10
1200
20
300
10
0
20
300
0
LINE
8
INFISSI
100
AcDbEntity
100
AcDbLine
10
1200
20
0
30
0
11
1200
21
300
31
0
0
LINE
8
INFISSI
100
AcDbEntity
100
AcDbLine
10
3600
20
0
30
0
11
3600
21
300
31
0
0
LINE
8
INFISSI
100
AcDbEntity
100
AcDbLine
10
1200
20
150
30
0
11
3600
21
150
31
0
0
LWPOLYLINE
8
MURI
100
AcDbEntity
100
AcDbPolyline
90
4
70
1
10
3600
20
0
10
5600
20
0
10
5600
20
300
10
3600
20
300
0
LINE
8
INFISSI
100
AcDbEntity
100
AcDbLine
10
5600
20
0
30
0
11
5600
21
300
31
0
0
LINE
8
INFISSI
100
AcDbEntity
100
AcDbLine
10
8000
20
0
30
0
11
8000
21
300
31
0
0
LINE
8
INFISSI
100
AcDbEntity
100
AcDbLine
10
5600
20
150
30
0
11
8000
21
150
31
0
0
LWPOLYLINE
8
MURI
100
AcDbEntity
100
AcDbPolyline
90
4
70
1
10
8000
20
0
10
10200
20
0
10
10200
20
300
10
8000
20
300
0
LINE
8
INFISSI
100
AcDbEntity
100
AcDbLine
10
10200
20
0
30
0
11
10200
21
300
31
0
0
LINE
8
INFISSI
100
AcDbEntity
100
AcDbLine
10
12600
20
0
30
0
11
12600
21
300
31
0
0
LINE
8
INFISSI
100
AcDbEntity
100
AcDbLine
10
10200
20
150
30
0
11
12600
21
150
31
0
0
LWPOLYLINE
8
MURI
100
AcDbEntity
100
AcDbPolyline
90
4
70
1
10
12600
20
0
10
14000
20
0
10
14000
20
300
10
12600
20
300
0
LWPOLYLINE
8
MURI
100
AcDbEntity
100
AcDbPolyline
90
4
70
1
10
0
20
8700
10
1400
20
8700
10
1400
20
9000
10
0
20
9000
0
LINE
8
INFISSI
100
AcDbEntity
100
AcDbLine
10
1400
20
8700
30
0
11
1400
21
7300
31
0
0
ARC
8
INFISSI
100
AcDbEntity
100
AcDbCircle
10
1400
20
8700
30
0
40
1400
100
AcDbArc
50
270
51
360
0
LINE
8
INFISSI
100
AcDbEntity
100
AcDbLine
10
1400
20
8700
30
0
11
2800
21
8700
31
0
0
LWPOLYLINE
8
MURI
100
AcDbEntity
100
AcDbPolyline
90
4
70
1
10
2800
20
8700
10
4400
20
8700
10
4400
20
9000
10
2800
20
9000
0
LINE
8
INFISSI
100
AcDbEntity
100
AcDbLine
10
4400
20
8700
30
0
11
4400
21
9000
31
0
0
LINE
8
INFISSI
100
AcDbEntity
100
AcDbLine
10
6400
20
8700
30
0
11
6400
21
9000
31
0
0
LINE
8
INFISSI
100
AcDbEntity
100
AcDbLine
10
4400
20
8850
30
0
11
6400
21
8850
31
0
0
LWPOLYLINE
8
MURI
100
AcDbEntity
100
AcDbPolyline
90
4
70
1
10
6400
20
8700
10
9800
20
8700
10
9800
20
9000
10
6400
20
9000
0
LINE
8
INFISSI
100
AcDbEntity
100
AcDbLine
10
9800
20
8700
30
0
11
9800
21
9000
31
0
0
LINE
8
INFISSI
100
AcDbEntity
100
AcDbLine
10
12200
20
8700
30
0
11
12200
21
9000
31
0
0
LINE
8
INFISSI
100
AcDbEntity
100
AcDbLine
10
9800
20
8850
30
0
11
12200
21
8850
31
0
0
LWPOLYLINE
8
MURI
100
AcDbEntity
100
AcDbPolyline
90
4
70
1
10
12200
20
8700
10
14000
20
8700
10
14000
20
9000
10
12200
20
9000
0
LWPOLYLINE
8
MURI
100
AcDbEntity
100
AcDbPolyline
90
4
70
1
10
0
20
0
10
300
20
0
10
300
20
2400
10
0
20
2400
0
LINE
8
INFISSI
100
AcDbEntity
100
AcDbLine
10
0
20
2400
30
0
11
300
21
2400
31
0
0
LINE
8
INFISSI
100
AcDbEntity
100
AcDbLine
10
0
20
4200
30
0
11
300
21
4200
31
0
0
LINE
8
INFISSI
100
AcDbEntity
100
AcDbLine
10
150
20
2400
30
0
11
150
21
4200
31
0
0
LWPOLYLINE
8
MURI
100
AcDbEntity
100
AcDbPolyline
90
4
70
1
10
0
20
4200
10
300
20
4200
10
300
20
9000
10
0
20
9000
0
LWPOLYLINE
8
MURI
100
AcDbEntity
100
AcDbPolyline
90
4
70
1
10
13700
20
0
10
14000
20
0
10
14000
20
3000
10
13700
20
3000
0
LINE
8
INFISSI
100
AcDbEntity
100
AcDbLine
10
13700
20
3000
30
0
11
14000
21
3000
31
0
0
LINE
8
INFISSI
100
AcDbEntity
100
AcDbLine
10
13700
20
5400
30
0
11
14000
21
5400
31
0
0
LINE
8
INFISSI
100
AcDbEntity
100
AcDbLine
10
13850
20
3000
30
0
11
13850
21
5400
31
0
0
LWPOLYLINE
8
MURI
100
AcDbEntity
100
AcDbPolyline
90
4
70
1
10
13700
20
5400
10
14000
20
5400
10
14000
20
9000
10
13700
20
9000
0
LWPOLYLINE
8
TRAMEZZE
100
AcDbEntity
100
AcDbPolyline
90
4
70
1
10
300
20
4100
10
2000
20
4100
10
2000
20
4200
10
300
20
4200
0
LWPOLYLINE
8
TRAMEZZE
100
AcDbEntity
100
AcDbPolyline
90
4
70
1
10
2900
20
4100
10
6400
20
4100
10
6400
20
4200
10
2900
20
4200
0
LWPOLYLINE
8
TRAMEZZE
100
AcDbEntity
100
AcDbPolyline
90
4
70
1
10
7300
20
4100
10
11000
20
4100
10
11000
20
4200
10
7300
20
4200
0
LWPOLYLINE
8
TRAMEZZE
100
AcDbEntity
100
AcDbPolyline
90
4
70
1
10
11900
20
4100
10
13700
20
4100
10
13700
20
4200
10
11900
20
4200
0
LWPOLYLINE
8
TRAMEZZE
100
AcDbEntity
100
AcDbPolyline
90
4
70
1
10
300
20
5400
10
1400
20
5400
10
1400
20
5500
10
300
20
5500
0
LWPOLYLINE
8
TRAMEZZE
100
AcDbEntity
100
AcDbPolyline
90
4
70
1
10
2300
20
5400
10
4800
20
5400
10
4800
20
5500
10
2300
20
5500
0
LWPOLYLINE
8
TRAMEZZE
100
AcDbEntity
100
AcDbPolyline
90
4
70
1
10
5700
20
5400
10
7500
20
5400
10
7500
20
5500
10
5700
20
5500
0
LWPOLYLINE
8
TRAMEZZE
100
AcDbEntity
100
AcDbPolyline
90
4
70
1
10
8300
20
5400
10
11000
20
5400
10
11000
20
5500
10
8300
20
5500
0
LWPOLYLINE
8
TRAMEZZE
100
AcDbEntity
100
AcDbPolyline
90
4
70
1
10
11900
20
5400
10
13700
20
5400
10
13700
20
5500
10
11900
20
5500
0
LINE
8
INFISSI
100
AcDbEntity
100
AcDbLine
10
2900
20
4100
30
0
11
2900
21
3200
31
0
0
ARC
8
INFISSI
100
AcDbEntity
100
AcDbCircle
10
2900
20
4100
30
0
40
900
100
AcDbArc
50
180
51
270
0
LINE
8
INFISSI
100
AcDbEntity
100
AcDbLine
10
2900
20
4100
30
0
11
2000
21
4100
31
0
0
LINE
8
INFISSI
100
AcDbEntity
100
AcDbLine
10
6400
20
4100
30
0
11
6400
21
3200
31
0
0
ARC
8
INFISSI
100
AcDbEntity
100
AcDbCircle
10
6400
20
4100
30
0
40
900
100
AcDbArc
50
270
51
360
0
LINE
8
INFISSI
100
AcDbEntity
100
AcDbLine
10
6400
20
4100
30
0
11
7300
21
4100
31
0
0
LINE
8
INFISSI
100
AcDbEntity
100
AcDbLine
10
11900
20
4100
30
0
11
11900
21
3200
31
0
0
ARC
8
INFISSI
100
AcDbEntity
100
AcDbCircle
10
11900
20
4100
30
0
40
900
100
AcDbArc
50
180
51
270
0
LINE
8
INFISSI
100
AcDbEntity
100
AcDbLine
10
11900
20
4100
30
0
11
11000
21
4100
31
0
0
LINE
8
INFISSI
100
AcDbEntity
100
AcDbLine
10
1400
20
5500
30
0
11
1400
21
6400
31
0
0
ARC
8
INFISSI
100
AcDbEntity
100
AcDbCircle
10
1400
20
5500
30
0
40
900
100
AcDbArc
50
0
51
90
0
LINE
8
INFISSI
100
AcDbEntity
100
AcDbLine
10
1400
20
5500
30
0
11
2300
21
5500
31
0
0
LINE
8
INFISSI
100
AcDbEntity
100
AcDbLine
10
5700
20
5500
30
0
11
5700
21
6400
31
0
0
ARC
8
INFISSI
100
AcDbEntity
100
AcDbCircle
10
5700
20
5500
30
0
40
900
100
AcDbArc
50
90
51
180
0
LINE
8
INFISSI
100
AcDbEntity
100
AcDbLine
10
5700
20
5500
30
0
11
4800
21
5500
31
0
0
LINE
8
INFISSI
100
AcDbEntity
100
AcDbLine
10
7500
20
5500
30
0
11
7500
21
6300
31
0
0
ARC
8
INFISSI
100
AcDbEntity
100
AcDbCircle
10
7500
20
5500
30
0
40
800
100
AcDbArc
50
0
51
90
0
LINE
8
INFISSI
100
AcDbEntity
100
AcDbLine
10
7500
20
5500
30
0
11
8300
21
5500
31
0
0
LINE
8
INFISSI
100
AcDbEntity
100
AcDbLine
10
11000
20
5500
30
0
11
11000
21
6400
31
0
0
ARC
8
INFISSI
100
AcDbEntity
100
AcDbCircle
10
11000
20
5500
30
0
40
900
100
AcDbArc
50
0
51
90
0
LINE
8
INFISSI
100
AcDbEntity
100
AcDbLine
10
11000
20
5500
30
0
11
11900
21
5500
31
0
0
LWPOLYLINE
8
TRAMEZZE
100
AcDbEntity
100
AcDbPolyline
90
4
70
1
10
4600
20
300
10
4700
20
300
10
4700
20
4100
10
4600
20
4100
0
LWPOLYLINE
8
TRAMEZZE
100
AcDbEntity
100
AcDbPolyline
90
4
70
1
10
9000
20
300
10
9100
20
300
10
9100
20
4100
10
9000
20
4100
0
LWPOLYLINE
8
TRAMEZZE
100
AcDbEntity
100
AcDbPolyline
90
4
70
1
10
3600
20
5500
10
3700
20
5500
10
3700
20
8700
10
3600
20
8700
0
LWPOLYLINE
8
TRAMEZZE
100
AcDbEntity
100
AcDbPolyline
90
4
70
1
10
6800
20
5500
10
6900
20
5500
10
6900
20
8700
10
6800
20
8700
0
LWPOLYLINE
8
TRAMEZZE
100
AcDbEntity
100
AcDbPolyline
90
4
70
1
10
9000
20
5500
10
9100
20
5500
10
9100
20
8700
10
9000
20
8700
0
LWPOLYLINE
8
ARREDO
100
AcDbEntity
100
AcDbPolyline
90
4
70
1
10
800
20
700
10
2300
20
700
10
2300
20
1450
10
800
20
1450
0
CIRCLE
8
ARREDO
100
AcDbEntity
100
AcDbCircle
10
1550
20
1870
30
0
40
240
0
LWPOLYLINE
8
ARREDO
100
AcDbEntity
100
AcDbPolyline
90
4
70
1
10
2700
20
700
10
4200
20
700
10
4200
20
1450
10
2700
20
1450
0
CIRCLE
8
ARREDO
100
AcDbEntity
100
AcDbCircle
10
3450
20
1870
30
0
40
240
0
LWPOLYLINE
8
ARREDO
100
AcDbEntity
100
AcDbPolyline
90
4
70
1
10
5200
20
700
10
6700
20
700
10
6700
20
1450
10
5200
20
1450
0
CIRCLE
8
ARREDO
100
AcDbEntity
100
AcDbCircle
10
5950
20
1870
30
0
40
240
0
LWPOLYLINE
8
ARREDO
100
AcDbEntity
100
AcDbPolyline
90
4
70
1
10
7100
20
700
10
8600
20
700
10
8600
20
1450
10
7100
20
1450
0
CIRCLE
8
ARREDO
100
AcDbEntity
100
AcDbCircle
10
7850
20
1870
30
0
40
240
0
LWPOLYLINE
8
ARREDO
100
AcDbEntity
100
AcDbPolyline
90
4
70
1
10
9900
20
1000
10
12900
20
1000
10
12900
20
2200
10
9900
20
2200
0
CIRCLE
8
ARREDO
100
AcDbEntity
100
AcDbCircle
10
10500
20
550
30
0
40
240
0
CIRCLE
8
ARREDO
100
AcDbEntity
100
AcDbCircle
10
10500
20
2650
30
0
40
240
0
CIRCLE
8
ARREDO
100
AcDbEntity
100
AcDbCircle
10
11400
20
550
30
0
40
240
0
CIRCLE
8
ARREDO
100
AcDbEntity
100
AcDbCircle
10
11400
20
2650
30
0
40
240
0
CIRCLE
8
ARREDO
100
AcDbEntity
100
AcDbCircle
10
12300
20
550
30
0
40
240
0
CIRCLE
8
ARREDO
100
AcDbEntity
100
AcDbCircle
10
12300
20
2650
30
0
40
240
0
CIRCLE
8
ARREDO
100
AcDbEntity
100
AcDbCircle
10
9450
20
1600
30
0
40
240
0
CIRCLE
8
ARREDO
100
AcDbEntity
100
AcDbCircle
10
13350
20
1600
30
0
40
240
0
LWPOLYLINE
8
ARREDO
100
AcDbEntity
100
AcDbPolyline
90
4
70
1
10
700
20
5800
10
3400
20
5800
10
3400
20
6300
10
700
20
6300
0
LWPOLYLINE
8
ARREDO
100
AcDbEntity
100
AcDbPolyline
90
4
70
1
10
3800
20
5700
10
4400
20
5700
10
4400
20
6400
10
3800
20
6400
0
LWPOLYLINE
8
ARREDO
100
AcDbEntity
100
AcDbPolyline
90
4
70
1
10
4550
20
5700
10
5150
20
5700
10
5150
20
6400
10
4550
20
6400
0
LWPOLYLINE
8
ARREDO
100
AcDbEntity
100
AcDbPolyline
90
4
70
1
10
5300
20
5700
10
5900
20
5700
10
5900
20
6400
10
5300
20
6400
0
LWPOLYLINE
8
ARREDO
100
AcDbEntity
100
AcDbPolyline
90
4
70
1
10
6050
20
5700
10
6650
20
5700
10
6650
20
6400
10
6050
20
6400
0
LWPOLYLINE
8
SANITARI
100
AcDbEntity
100
AcDbPolyline
90
4
70
1
10
7000
20
5700
10
7400
20
5700
10
7400
20
6200
10
7000
20
6200
0
LWPOLYLINE
8
SANITARI
100
AcDbEntity
100
AcDbPolyline
90
4
70
1
10
7700
20
5700
10
8100
20
5700
10
8100
20
6200
10
7700
20
6200
0
CIRCLE
8
SANITARI
100
AcDbEntity
100
AcDbCircle
10
8600
20
5950
30
0
40
240
0
CIRCLE
8
SANITARI
100
AcDbEntity
100
AcDbCircle
10
8600
20
6700
30
0
40
240
0
LWPOLYLINE
8
ARREDO
100
AcDbEntity
100
AcDbPolyline
90
4
70
1
10
9300
20
5700
10
10000
20
5700
10
10000
20
6400
10
9300
20
6400
0
LWPOLYLINE
8
ARREDO
100
AcDbEntity
100
AcDbPolyline
90
4
70
1
10
10150
20
5700
10
10850
20
5700
10
10850
20
6400
10
10150
20
6400
0
LWPOLYLINE
8
ARREDO
100
AcDbEntity
100
AcDbPolyline
90
4
70
1
10
11000
20
5700
10
11700
20
5700
10
11700
20
6400
10
11000
20
6400
0
LWPOLYLINE
8
ARREDO
100
AcDbEntity
100
AcDbPolyline
90
4
70
1
10
11850
20
5700
10
12550
20
5700
10
12550
20
6400
10
11850
20
6400
0
LWPOLYLINE
8
ARREDO
100
AcDbEntity
100
AcDbPolyline
90
4
70
1
10
12700
20
5700
10
13400
20
5700
10
13400
20
6400
10
12700
20
6400
0
TEXT
8
TESTI
100
AcDbEntity
100
AcDbText
10
800
20
3350
30
0
40
300
1
UFFICIO 1
50
0
72
0
11
800
21
3350
31
0
0
TEXT
8
TESTI
100
AcDbEntity
100
AcDbText
10
800
20
2890
30
0
40
190
1
16,34 m²
50
0
72
0
11
800
21
2890
31
0
0
TEXT
8
TESTI
100
AcDbEntity
100
AcDbText
10
5200
20
3350
30
0
40
300
1
UFFICIO 2
50
0
72
0
11
5200
21
3350
31
0
0
TEXT
8
TESTI
100
AcDbEntity
100
AcDbText
10
5200
20
2890
30
0
40
190
1
16,34 m²
50
0
72
0
11
5200
21
2890
31
0
0
TEXT
8
TESTI
100
AcDbEntity
100
AcDbText
10
9400
20
3350
30
0
40
300
1
SALA RIUNIONI
50
0
72
0
11
9400
21
3350
31
0
0
TEXT
8
TESTI
100
AcDbEntity
100
AcDbText
10
9400
20
2890
30
0
40
190
1
17,48 m²
50
0
72
0
11
9400
21
2890
31
0
0
TEXT
8
TESTI
100
AcDbEntity
100
AcDbText
10
700
20
7900
30
0
40
300
1
INGRESSO
50
0
72
0
11
700
21
7900
31
0
0
TEXT
8
TESTI
100
AcDbEntity
100
AcDbText
10
700
20
7440
30
0
40
190
1
10,89 m²
50
0
72
0
11
700
21
7440
31
0
0
TEXT
8
TESTI
100
AcDbEntity
100
AcDbText
10
3800
20
7900
30
0
40
300
1
ARCHIVIO
50
0
72
0
11
3800
21
7900
31
0
0
TEXT
8
TESTI
100
AcDbEntity
100
AcDbText
10
3800
20
7440
30
0
40
190
1
10,23 m²
50
0
72
0
11
3800
21
7440
31
0
0
TEXT
8
TESTI
100
AcDbEntity
100
AcDbText
10
7000
20
7900
30
0
40
300
1
SERVIZI
50
0
72
0
11
7000
21
7900
31
0
0
TEXT
8
TESTI
100
AcDbEntity
100
AcDbText
10
7000
20
7440
30
0
40
190
1
6,93 m²
50
0
72
0
11
7000
21
7440
31
0
0
TEXT
8
TESTI
100
AcDbEntity
100
AcDbText
10
9300
20
7900
30
0
40
300
1
DEPOSITO
50
0
72
0
11
9300
21
7900
31
0
0
TEXT
8
TESTI
100
AcDbEntity
100
AcDbText
10
9300
20
7440
30
0
40
190
1
15,18 m²
50
0
72
0
11
9300
21
7440
31
0
0
TEXT
8
TESTI
100
AcDbEntity
100
AcDbText
10
5600
20
4600
30
0
40
240
1
CORRIDOIO
50
0
72
0
11
5600
21
4600
31
0
0
LINE
8
QUOTE
100
AcDbEntity
100
AcDbLine
10
0
20
-900
30
0
11
4700
21
-900
31
0
0
LINE
8
QUOTE
100
AcDbEntity
100
AcDbLine
10
-90
20
-990
30
0
11
90
21
-810
31
0
0
LINE
8
QUOTE
100
AcDbEntity
100
AcDbLine
10
0
20
-1080
30
0
11
0
21
-720
31
0
0
LINE
8
QUOTE
100
AcDbEntity
100
AcDbLine
10
4610
20
-990
30
0
11
4790
21
-810
31
0
0
LINE
8
QUOTE
100
AcDbEntity
100
AcDbLine
10
4700
20
-1080
30
0
11
4700
21
-720
31
0
0
TEXT
8
QUOTE
100
AcDbEntity
100
AcDbText
10
2102
20
-740
30
0
40
220
1
4,70
50
0
72
0
11
2102
21
-740
31
0
0
LINE
8
QUOTE
100
AcDbEntity
100
AcDbLine
10
4700
20
-900
30
0
11
9100
21
-900
31
0
0
LINE
8
QUOTE
100
AcDbEntity
100
AcDbLine
10
4610
20
-990
30
0
11
4790
21
-810
31
0
0
LINE
8
QUOTE
100
AcDbEntity
100
AcDbLine
10
4700
20
-1080
30
0
11
4700
21
-720
31
0
0
LINE
8
QUOTE
100
AcDbEntity
100
AcDbLine
10
9010
20
-990
30
0
11
9190
21
-810
31
0
0
LINE
8
QUOTE
100
AcDbEntity
100
AcDbLine
10
9100
20
-1080
30
0
11
9100
21
-720
31
0
0
TEXT
8
QUOTE
100
AcDbEntity
100
AcDbText
10
6652
20
-740
30
0
40
220
1
4,40
50
0
72
0
11
6652
21
-740
31
0
0
LINE
8
QUOTE
100
AcDbEntity
100
AcDbLine
10
9100
20
-900
30
0
11
14000
21
-900
31
0
0
LINE
8
QUOTE
100
AcDbEntity
100
AcDbLine
10
9010
20
-990
30
0
11
9190
21
-810
31
0
0
LINE
8
QUOTE
100
AcDbEntity
100
AcDbLine
10
9100
20
-1080
30
0
11
9100
21
-720
31
0
0
LINE
8
QUOTE
100
AcDbEntity
100
AcDbLine
10
13910
20
-990
30
0
11
14090
21
-810
31
0
0
LINE
8
QUOTE
100
AcDbEntity
100
AcDbLine
10
14000
20
-1080
30
0
11
14000
21
-720
31
0
0
TEXT
8
QUOTE
100
AcDbEntity
100
AcDbText
10
11302
20
-740
30
0
40
220
1
4,90
50
0
72
0
11
11302
21
-740
31
0
0
LINE
8
QUOTE
100
AcDbEntity
100
AcDbLine
10
0
20
-1900
30
0
11
14000
21
-1900
31
0
0
LINE
8
QUOTE
100
AcDbEntity
100
AcDbLine
10
-90
20
-1990
30
0
11
90
21
-1810
31
0
0
LINE
8
QUOTE
100
AcDbEntity
100
AcDbLine
10
0
20
-2080
30
0
11
0
21
-1720
31
0
0
LINE
8
QUOTE
100
AcDbEntity
100
AcDbLine
10
13910
20
-1990
30
0
11
14090
21
-1810
31
0
0
LINE
8
QUOTE
100
AcDbEntity
100
AcDbLine
10
14000
20
-2080
30
0
11
14000
21
-1720
31
0
0
TEXT
8
QUOTE
100
AcDbEntity
100
AcDbText
10
6690
20
-1740
30
0
40
220
1
14,00
50
0
72
0
11
6690
21
-1740
31
0
0
LINE
8
QUOTE
100
AcDbEntity
100
AcDbLine
10
-900
20
0
30
0
11
-900
21
9000
31
0
0
LINE
8
QUOTE
100
AcDbEntity
100
AcDbLine
10
-990
20
-90
30
0
11
-810
21
90
31
0
0
LINE
8
QUOTE
100
AcDbEntity
100
AcDbLine
10
-1080
20
0
30
0
11
-720
21
0
31
0
0
LINE
8
QUOTE
100
AcDbEntity
100
AcDbLine
10
-990
20
8910
30
0
11
-810
21
9090
31
0
0
LINE
8
QUOTE
100
AcDbEntity
100
AcDbLine
10
-1080
20
9000
30
0
11
-720
21
9000
31
0
0
TEXT
8
QUOTE
100
AcDbEntity
100
AcDbText
10
-1060
20
4252
30
0
40
220
1
9,00
50
90
72
0
11
-1060
21
4252
31
0
0
LINE
8
QUOTE
100
AcDbEntity
100
AcDbLine
10
0
20
0
30
0
11
0
21
-2100
31
0
0
LINE
8
QUOTE
100
AcDbEntity
100
AcDbLine
10
4700
20
0
30
0
11
4700
21
-2100
31
0
0
LINE
8
QUOTE
100
AcDbEntity
100
AcDbLine
10
9100
20
0
30
0
11
9100
21
-2100
31
0
0
LINE
8
QUOTE
100
AcDbEntity
100
AcDbLine
10
14000
20
0
30
0
11
14000
21
-2100
31
0
0
LINE
8
QUOTE
100
AcDbEntity
100
AcDbLine
10
0
20
0
30
0
11
-1100
21
0
31
0
0
LINE
8
QUOTE
100
AcDbEntity
100
AcDbLine
10
0
20
9000
30
0
11
-1100
21
9000
31
0
0
LWPOLYLINE
8
CORNICE
100
AcDbEntity
100
AcDbPolyline
90
4
70
1
10
-2900
20
-2900
10
15400
20
-2900
10
15400
20
10400
10
-2900
20
10400
0
LWPOLYLINE
8
CORNICE
100
AcDbEntity
100
AcDbPolyline
90
4
70
1
10
14600
20
10200
10
14300
20
9200
10
14600
20
9500
10
14900
20
9200
0
TEXT
8
CORNICE
100
AcDbEntity
100
AcDbText
10
14490
20
10400
30
0
40
260
1
N
50
0
72
0
11
14490
21
10400
31
0
0
TEXT
8
CORNICE
100
AcDbEntity
100
AcDbText
10
-2700
20
9900
30
0
40
300
1
PIANTA PIANO TERRA — esempio dimostrativo
50
0
72
0
11
-2700
21
9900
31
0
0
TEXT
8
CORNICE
100
AcDbEntity
100
AcDbText
10
-2700
20
-2700
30
0
40
200
1
Disegno inventato a scopo di prova · scala 1:100 · quote in metri
50
0
72
0
11
-2700
21
-2700
31
0
0
ENDSEC
0
EOF
