0
SECTION
2
HEADER
9
$INSUNITS
70
4
0
ENDSEC
0
SECTION
2
TABLES
0
TABLE
2
LAYER
70
2
0
LAYER
2
0
70
0
62
7
6
CONTINUOUS
0
LAYER
2
MURI
70
0
62
1
6
CONTINUOUS
0
ENDTAB
0
ENDSEC
0
SECTION
2
BLOCKS
0
BLOCK
8
0
2
QUADRO
70
0
10
0.0
20
0.0
30
0.0
3
QUADRO
0
LWPOLYLINE
8
0
90
4
70
1
10
0.0
20
0.0
10
10.0
20
0.0
10
10.0
20
10.0
10
0.0
20
10.0
0
ENDBLK
0
ENDSEC
0
SECTION
2
ENTITIES
0
LINE
8
MURI
10
0.0
20
0.0
11
100.0
21
0.0
0
CIRCLE
8
MURI
10
200.0
20
0.0
40
50.0
0
ARC
8
0
10
0.0
20
100.0
40
100.0
50
0.0
51
90.0
0
TEXT
8
0
10
200.0
20
200.0
40
10.0
1
PROVA
50
90.0
0
INSERT
8
0
2
QUADRO
10
500.0
20
500.0
41
1.0
42
1.0
50
90.0
0
ENDSEC
0
EOF
